<?xml version="1.0" encoding="utf-8"?>
<!-- Generator: Adobe Illustrator 22.1.0, SVG Export Plug-In . SVG Version: 6.00 Build 0)  -->
<svg version="1.1" id="レイヤー_1" xmlns="http://www.w3.org/2000/svg" xmlns:xlink="http://www.w3.org/1999/xlink" x="0px"
	 y="0px" viewBox="0 0 3000 300" style="enable-background:new 0 0 3000 300;" xml:space="preserve">
<style type="text/css">
	.st0{enable-background:new    ;}
	.st1{fill:#D3D3D3;}
	.st2{fill:#C9C9C9;}
	.st3{fill:#CC0033;}
	.st4{fill:#BE0031;}
	.st5{fill:#727272;}
	.st6{fill:#591010;}
	.st7{fill:none;stroke:#727272;stroke-miterlimit:10;}
</style>
<g class="st0">
	<path class="st1" d="M2193.3,216.5l-15.4,26.1v16.2h-9.3v-15.7l-15.7-26.6h10.5l10.2,18.3l9.7-18.3L2193.3,216.5L2193.3,216.5z"/>
	<path class="st1" d="M2232.2,258.7h-9.8l-3.2-9.2h-16.6l-3.2,9.2h-9.4l16-42.3h10.3L2232.2,258.7z M2216.9,243l-6-17.1l-6,17.1
		H2216.9z"/>
	<path class="st1" d="M2275.1,258.7h-11.4l-13.9-17.5l-3.1,3.6v13.9h-9.2v-42.3h9.3v20.1l16.9-20.1h10.8l-17.3,19.6L2275.1,258.7z"
		/>
	<path class="st1" d="M2301.2,258.7h-23.1v-6.3h6.9v-29.6h-6.9v-6.3h23.1v6.3h-6.9v29.6h6.9V258.7z"/>
	<path class="st1" d="M2345.7,258.7h-8.9l-19-31v31h-8.6v-42.3h11.2l16.7,27.3v-27.3h8.6V258.7z"/>
	<path class="st1" d="M2376.9,258.7h-23.1v-6.3h6.9v-29.6h-6.9v-6.3h23.1v6.3h-6.9v29.6h6.9V258.7z"/>
	<path class="st1" d="M2422.7,258.7h-11.4l-13.9-17.5l-3.1,3.6v13.9h-9.2v-42.3h9.3v20.1l16.9-20.1h10.8l-17.3,19.6L2422.7,258.7z"
		/>
	<path class="st1" d="M2462.3,242.9c0,5.6-1.6,9.7-4.7,12.5c-3.1,2.8-7.6,4.2-13.3,4.2c-5.8,0-10.2-1.4-13.3-4.2
		c-3.1-2.8-4.6-7-4.6-12.5v-26.4h9.3v26.2c0,3.5,0.7,6.1,2.2,7.6c1.4,1.6,3.6,2.4,6.5,2.4c3,0,5.2-0.8,6.6-2.3
		c1.4-1.6,2.1-4.1,2.1-7.6v-26.3h9.3v26.4H2462.3z"/>
	<path class="st1" d="M2471.8,258.7v-42.3h13.2c6,0,10.6,0.8,14,2.3c3.3,1.5,6,3.9,7.9,7.1c1.9,3.2,2.9,7.1,2.9,11.8
		c0,4.2-1,8.1-3,11.4s-4.7,5.8-8.1,7.4c-3.4,1.5-7.9,2.3-13.6,2.3H2471.8z M2481.1,223.1v29h4.5c9.7,0,14.6-4.8,14.6-14.5
		c0-9.6-4.9-14.4-14.6-14.4h-4.5V223.1z"/>
	<path class="st1" d="M2554,258.7h-9.8l-3.2-9.2h-16.6l-3.2,9.2h-9.4l16-42.3h10.3L2554,258.7z M2538.7,243l-6-17.1l-6,17.1H2538.7z
		"/>
	<path class="st1" d="M2580.4,258.7h-23.1v-6.3h6.9v-29.6h-6.9v-6.3h23.1v6.3h-6.9v29.6h6.9V258.7z"/>
	<path class="st1" d="M2586.1,256.2v-8.9h1c2.1,1.7,4.5,3.1,7.2,4.1s5.3,1.5,7.8,1.5c2.6,0,4.7-0.5,6.3-1.4s2.4-2.2,2.4-3.9
		c0-1.3-0.4-2.3-1.1-3.1c-0.8-0.8-2.2-1.4-4.3-1.9c-1.5-0.3-4.1-0.8-7.8-1.7s-6.4-2.3-8.4-4.3c-1.9-2.1-2.9-4.7-2.9-7.9
		c0-3.8,1.6-7,4.9-9.4c3.3-2.4,7.5-3.6,12.6-3.6c5.2,0,10.2,1,14.8,2.9v8.6h-0.9c-3.9-3.2-8.4-4.8-13.5-4.8c-2.4,0-4.4,0.4-6,1.3
		c-1.6,0.9-2.3,2.1-2.3,3.7c0,1.3,0.4,2.4,1.3,3.2c0.9,0.8,2.4,1.4,4.6,1.9c2.1,0.4,4.5,0.9,7.2,1.6c2.6,0.6,4.6,1.4,5.9,2.2
		c1.3,0.8,2.3,1.7,3.1,2.6c0.8,0.9,1.4,2,1.7,3.2c0.4,1.2,0.6,2.4,0.6,3.8c0,4.1-1.7,7.4-5,9.9c-3.4,2.5-7.8,3.8-13.3,3.8
		C2596.6,259.5,2591.3,258.4,2586.1,256.2z"/>
	<path class="st1" d="M2662.6,242.9c0,5.6-1.6,9.7-4.7,12.5c-3.1,2.8-7.6,4.2-13.3,4.2c-5.8,0-10.2-1.4-13.3-4.2
		c-3.1-2.8-4.6-7-4.6-12.5v-26.4h9.3v26.2c0,3.5,0.7,6.1,2.2,7.6c1.4,1.6,3.6,2.4,6.5,2.4c3,0,5.2-0.8,6.6-2.3s2.1-4.1,2.1-7.6
		v-26.3h9.3v26.4H2662.6z"/>
	<path class="st1" d="M2709.8,258.7h-11.4l-13.9-17.5l-3.1,3.6v13.9h-9.2v-42.3h9.3v20.1l16.9-20.1h10.8l-17.3,19.6L2709.8,258.7z"
		/>
	<path class="st1" d="M2736,258.7h-23.1v-6.3h6.9v-29.6h-6.9v-6.3h23.1v6.3h-6.9v29.6h6.9V258.7z"/>
	<path class="st1" d="M2753.8,258.7h-9.6v-10.2h9.6V258.7z"/>
	<path class="st1" d="M2788.9,257.1c-3.6,1.6-6.9,2.5-9.8,2.5c-5.7,0-10.1-1.5-13.3-4.4c-3.2-2.9-4.8-7.1-4.8-12.6s1.6-9.7,4.8-12.7
		s7.5-4.5,12.9-4.5c3.5,0,6.9,0.8,10.2,2.5v7.9h-0.4c-3.2-2.8-6.3-4.3-9.4-4.3c-2.9,0-5.1,1-6.7,2.9c-1.6,2-2.4,4.7-2.4,8.2
		s0.8,6.2,2.4,8s3.9,2.8,6.8,2.8c3.1,0,6.2-1.4,9.3-4.3h0.4V257.1z"/>
	<path class="st1" d="M2809,259.8c-5.3,0-9.4-1.5-12.3-4.6c-2.9-3-4.4-7.3-4.4-12.7s1.5-9.7,4.4-12.7s7-4.6,12.2-4.6
		c5.3,0,9.3,1.5,12.3,4.6c2.9,3,4.4,7.3,4.4,12.7s-1.5,9.6-4.4,12.7C2818.4,258.2,2814.3,259.8,2809,259.8z M2809,231.3
		c-5.1,0-7.7,3.8-7.7,11.4c0,7.4,2.6,11.1,7.8,11.1c5,0,7.5-3.7,7.5-11.1C2816.7,235,2814.2,231.3,2809,231.3z"/>
	<path class="st1" d="M2882.4,258.7h-8.7v-16.3c0-2.2-0.1-4.1-0.3-5.7c-0.2-1.6-0.8-2.8-1.7-3.4c-0.9-0.6-2.2-0.9-3.9-0.9
		c-1.5,0-3.6,0.8-6.3,2.5v23.8h-8.7v-16.3c0-2.3-0.1-4.2-0.3-5.8s-0.8-2.7-1.8-3.3c-0.9-0.6-2.2-0.9-3.9-0.9c-1.6,0-3.6,0.8-6.2,2.5
		v23.8h-8.6v-32.5h8.6v4.5c2.8-2.3,5-3.8,6.5-4.5c1.5-0.6,3-1,4.6-1c4.1,0,7.1,2.1,9,6.2c2.7-2.4,5-4,6.7-4.9s3.4-1.3,5.1-1.3
		c6.5,0,9.8,4,9.8,12L2882.4,258.7L2882.4,258.7z"/>
</g>
<g>
	<g>
		<path class="st2" d="M2973.7,216.1c-0.3-1.1-0.9-2-1.6-2.8c-1.1-1.1-2.5-1.7-3.9-2c-1.4-0.4-2.8-0.5-4.2-0.5
			c-1.1,0-2.2,0.1-3.1,0.2l0,0c-0.7,0.1-1.3,0.2-1.9,0.3c-0.5,0.1-1,0.2-1.3,0.2h-0.1c0,0,0,0,0-0.1c-0.4-2.8-0.6-5.5-1.3-8.2
			c-0.7-2.8-2.1-5.6-4.6-8.3c-1.2-1.3-2.7-2-4.1-2c-1.3,0-2.4,0.5-3.2,1.3s-1.3,1.9-1.3,3c0,0.5,0.1,1.1,0.4,1.6l0,0
			c0.7,2,1.2,3.8,1.2,5.3c0,0.9-0.1,1.6-0.4,2.2c-0.4,0.9-1.1,1.6-2.4,2.3c-1.3,0.6-3.2,1-5.9,1c-3.6,0-5.8-0.7-7-1.6
			c-0.6-0.5-1-1-1.3-1.6s-0.4-1.4-0.4-2.2c0-1.5,0.4-3.3,1.2-5.3l0,0c0.2-0.5,0.4-1.1,0.4-1.6c0-1.2-0.5-2.3-1.3-3
			c-0.8-0.8-1.9-1.3-3.2-1.3c-1.4,0-2.9,0.7-4.1,2c-2.5,2.7-3.9,5.5-4.6,8.3c-0.7,2.8-1,5.5-1.3,8.2c0,0,0,0,0,0.1h-0.1
			c-0.3,0-0.7-0.1-1.3-0.2c-0.6-0.1-1.2-0.2-1.9-0.3l0,0c-0.9-0.1-1.9-0.2-3.1-0.2c-1.8,0-3.7,0.2-5.5,0.9c-0.9,0.4-1.8,0.9-2.5,1.6
			c-0.7,0.7-1.3,1.7-1.6,2.8c-0.2,0.6-0.3,1.2-0.3,1.9c0,2.7,1.5,5.6,4.1,8c2.5,2.3,6.1,4.1,10.8,4.9c0,0.1,0,0.1,0.1,0.2
			c0.3,1.3,0.6,3.7,1.2,6.6c0.9,4.3,2.5,9.7,5.8,14.1c1.7,2.2,3.8,4.2,6.4,5.5c2.7,1.4,5.8,2.2,9.6,2.2c5.6,0,10-1.9,13.2-4.7
			c4.8-4.3,7-10.4,8.3-15.5c0.6-2.6,1-4.9,1.3-6.6c0.1-0.8,0.3-1.4,0.4-1.9c4.7-0.8,8.3-2.7,10.8-4.9c2.6-2.4,4.1-5.3,4.1-8
			C2974,217.3,2973.9,216.7,2973.7,216.1z M2922.6,197c0.8-0.8,1.3-1,1.8-1c0.4,0,0.7,0.1,0.9,0.4c0.2,0.2,0.4,0.5,0.4,0.8l-0.1,0.4
			v0.1v0.1c-0.8,2.2-1.3,4.4-1.4,6.4c0,1.2,0.2,2.4,0.7,3.5c0.4,0.9,1,1.7,1.7,2.4c-1.2,0-2.5,0-3.7-0.1c-2,0-3.9,0-5.1,0
			c0.3-2.1,0.5-4.1,1-5.9C2919.4,201.6,2920.4,199.4,2922.6,197z M2945.3,253.8c-2.4,1.6-5.4,2.6-9.3,2.6c-5,0-8.4-1.6-11.1-3.9
			c-1.9-1.7-3.4-3.8-4.5-6.1c0.1-0.7,0.4-1.4,1-2c1-1.3,2.9-2.4,5.5-3.2c2.5-0.8,5.6-1.2,9-1.2c4.5,0,8.5,0.8,11.3,2.1
			c1.4,0.7,2.5,1.5,3.2,2.3s1,1.7,1,2.7c-0.1,0.2-0.2,0.4-0.3,0.5C2949.6,250,2947.8,252.2,2945.3,253.8z M2967.8,223.6
			c-2.1,1.9-5.4,3.6-10,4.3l-0.4,0.1l-0.3,0.2c-0.4,0.3-0.5,0.5-0.7,0.7c-0.2,0.4-0.3,0.7-0.4,1.1c-0.2,0.7-0.3,1.6-0.5,2.7
			c-0.5,2.8-1.2,7-2.7,10.9c-0.2-0.3-0.4-0.6-0.6-0.9c-1.5-1.8-3.9-3.1-6.7-4s-6.2-1.3-9.7-1.3c-4.8,0-9.1,0.8-12.4,2.3
			c-1.6,0.8-3,1.8-4,3c-0.1,0.1-0.2,0.3-0.3,0.5c-0.6-1.6-1.1-3.2-1.4-4.7c-0.2-1-0.4-1.9-0.6-2.7c1,0.3,2.1,0.4,3.2,0.4
			c3.1,0,6.3-1.1,9.1-2.9c2.8-1.8,5.1-4.3,6.6-7.3c0.9-1.8,1.2-3.7,1.2-5.4c0-2.8-0.9-5.3-2.1-7.2c-0.2-0.3-0.4-0.5-0.6-0.8
			c0.5,0,1.1,0.1,1.6,0.1c4,0,6.9-0.7,9-2.3c1-0.8,1.8-1.8,2.2-2.9c0.5-1.1,0.7-2.3,0.7-3.5c0-2-0.5-4.2-1.4-6.4v-0.1v-0.1l-0.1-0.4
			c0-0.2,0.1-0.6,0.4-0.8c0.2-0.2,0.6-0.4,0.9-0.4c0.4,0,1,0.2,1.8,1c2.2,2.4,3.2,4.6,3.9,7s0.9,5,1.3,7.8c0.1,0.4,0.2,0.8,0.4,1.2
			c0.3,0.6,0.8,1.1,1.3,1.3c0.5,0.3,1.1,0.3,1.5,0.3c0.7,0,1.3-0.1,1.9-0.2c0.6-0.1,1.2-0.2,1.7-0.3l0,0c0.8-0.1,1.7-0.2,2.7-0.2
			c1.5,0,3.2,0.2,4.4,0.7c0.6,0.2,1.1,0.6,1.5,0.9c0.4,0.4,0.6,0.8,0.8,1.4c0.1,0.3,0.1,0.6,0.1,1
			C2970.8,219.5,2969.9,221.6,2967.8,223.6z"/>
		<path class="st2" d="M2928.8,246.1c-1,0-1.8,1.3-1.8,2.9c0,1.6,0.8,2.9,1.8,2.9s1.8-1.3,1.8-2.9
			C2930.6,247.4,2929.8,246.1,2928.8,246.1z"/>
		<path class="st2" d="M2940.7,246.1c-1,0-1.8,1.3-1.8,2.9c0,1.6,0.8,2.9,1.8,2.9s1.8-1.3,1.8-2.9
			C2942.5,247.4,2941.7,246.1,2940.7,246.1z"/>
		<path class="st2" d="M2945,222.3c-1.4,0-2.5,1.1-2.5,2.5s1.1,2.5,2.5,2.5s2.5-1.1,2.5-2.5C2947.5,223.5,2946.4,222.3,2945,222.3z"
			/>
	</g>
</g>
<path class="st3" d="M128,99.4H65.3C53.6,99.4,44,109,44,120.8v128.1c0,18.8,15.3,34.1,34.1,34.1h37.1c18.8,0,34.1-15.3,34.1-34.1
	V120.8C149.3,109,139.8,99.4,128,99.4z M96.7,272c-2.9,0-5.3-2.4-5.3-5.3s2.4-5.3,5.3-5.3s5.3,2.4,5.3,5.3
	C101.9,269.6,99.6,272,96.7,272z M83.1,107.5h27.1c1.5,0,2.8,1.2,2.8,2.8c0,1.5-1.2,2.8-2.8,2.8H83.1c-1.5,0-2.8-1.2-2.8-2.8
	C80.4,108.7,81.6,107.5,83.1,107.5z M56.1,248.9V125h81.2v123.9c0,1.4-0.1,2.7-0.4,4H56.4C56.2,251.6,56.1,250.3,56.1,248.9z"/>
<path class="st4" d="M231.6-74.1l-3.8,8.9c10.8,4.5,19.3,13.4,23.6,24.3l9-3.5C255.2-57.8,244.8-68.5,231.6-74.1z"/>
<path class="st4" d="M234.2-101.7l-2.8,9.2c22.8,6.9,40.7,25.2,47.2,48.1l9.2-2.6C280.4-73.2,260.1-93.8,234.2-101.7z"/>
<path class="st4" d="M237-128.9l-2.3,9.3c35.1,8.8,62.6,36.7,71,71.9l9.4-2.2C305.8-88.6,275.6-119.2,237-128.9z"/>
<g>
	<g class="st0">
		<path class="st5" d="M1686.9,118c-1.2,0.9-2,1.6-2.4,2.1c-0.9,1-1.3,2-1,2.8c0.2,1,1.3,1.8,3.1,2.3c1.5,0.3,3.2,0.5,5,0.5
			c4.2,0,9.6-0.8,16.3-2.3l1.2,6.2c-9.5,2.1-17.1,2.7-22.9,1.9c-5.4-0.7-8.6-2.7-9.5-6.1c-1-3.9,0.9-7.8,5.9-11.5L1686.9,118z
			 M1679.7,99.1c9.7,0.2,17.5-0.1,23.4-1l3.6,5.4c-4.3,1.7-8.7,4.5-13.2,8.2l-4-4.3c0.7-0.5,2.2-1.4,4.5-3
			c-4.1,0.5-8.8,0.7-14.2,0.7L1679.7,99.1z"/>
		<path class="st5" d="M1741.2,133.8l-3.1-5.6c4.4-1.5,7.3-3.4,8.9-5.6c2.9-4.3,3.4-8.4,1.6-12.3c-1.7-3.8-4.9-5.7-9.4-5.6
			c0,12-2.5,20.2-7.6,24.6c-2.1,1.7-4.2,2.2-6.4,1.4c-2.3-0.9-4.1-2.6-5.2-5c-2.3-4.6-2.4-9.5-0.2-14.8c2.2-5,5.8-8.4,10.8-10.4
			c3.6-1.4,7.1-1.8,10.6-1.4c3.7,0.3,6.8,1.7,9.4,4.2c3,2.8,4.7,6.2,5,10.4c0.3,4.5-0.7,8.5-3.1,12
			C1749.7,129.4,1746,132.1,1741.2,133.8z M1733.2,105.5c-5.2,1.9-8.1,5.6-8.7,11.3c-0.2,1.6-0.1,3.2,0.5,4.9c0.7,2,1.6,2.7,2.8,2.1
			c1.5-0.7,2.8-2.6,3.8-5.7S1733.2,110.7,1733.2,105.5z"/>
		<path class="st5" d="M1763.2,111.3v-5.9h7.5v-8h6.4v8h8.5V97h6.4v8.3h7.3v5.9h-7.3c0,5.6-1,10.1-3.1,13.7c-2.2,3.7-5.7,6.7-10.4,9
			l-4.7-4.9c4.3-2.1,7.3-4.5,9-7.1c1.8-2.7,2.8-6.2,2.8-10.8h-8.5v9.5h-6.4v-9.5h-7.5V111.3z"/>
		<path class="st5" d="M1808.5,115.6c12.3-4.9,21.6-11.1,28.1-18.7l5.6,4.5c-3.5,3.8-7.3,7.1-11.6,9.9v22.4h-6.8v-18.2
			c-3.6,2.3-7.5,4.4-11.6,6.2L1808.5,115.6z"/>
		<path class="st5" d="M1861.3,96.3h6.6v14.8l3.1-3.8c3.8,2.2,8.7,5.6,14.6,10.1l-4.2,5.2c-6.5-5.1-11-8.3-13.5-9.7V134h-6.6V96.3z"
			/>
		<path class="st5" d="M1898.9,97.2l6.6,1.4c-2.1,8.6-2.9,16.7-2.4,24.5c0.3-1.3,0.8-2.4,1.2-3.3l3.5,3.1c-1.4,3.2-2.5,6.8-3.5,10.6
			l-5.6,0.3C1896.5,123.1,1896.5,110.9,1898.9,97.2z M1919.4,119.8c-0.3-2.7-0.5-5.4-0.5-8.2l-10.6,0.2v-5.9c3.5,0,6.9-0.1,10.4-0.2
			v-8.9l6.4,0.2l-0.3,8.2c2.4-0.2,4.7-0.4,6.8-0.5l0.2,5.9c-1.3,0.2-3.6,0.5-6.9,0.7c0,3.6,0.2,6.7,0.7,9.4c3.7,1.4,6.6,2.8,8.7,4.2
			l-2.8,5.4c-2.3-1.6-4.1-2.7-5.2-3.1c0,3.8-2,6.1-5.9,6.9c-2,0.5-3.9,0.5-5.9,0c-2.5-0.5-4.3-1.4-5.2-3c-1.9-3-1.7-5.8,0.5-8.3
			C1912,120.2,1915.3,119.2,1919.4,119.8z M1920,125.3c-1.2-0.2-2.1-0.3-3-0.3c-1.3,0-2.1,0.3-2.6,1c-0.3,0.6-0.3,1.2,0,1.7
			c0.5,0.6,1.1,0.9,1.9,0.9C1919.1,128.7,1920.3,127.6,1920,125.3z"/>
		<path class="st5" d="M1939.2,126.5l4-3.5l8.2,8.7l-4.9,3.6L1939.2,126.5z"/>
		<path class="st5" d="M2023,103.6h-9.7v1.4h7.6v16.7h-4.7c0.8,1.2,2,2.5,3.5,4c1.8,2,3.5,3.2,5,3.8l-4,5c-0.9-0.5-2.2-1.4-3.8-3
			c-1.7-1.6-2.9-3-3.6-4.2v8.2h-6.6v-8c-0.5,1-1.3,2.3-2.6,3.8c-1.5,1.6-2.7,2.7-3.6,3.3l-4.7-4.2l2.4-2.1l-2.8,0.7
			c0-2.9-0.3-5.6-1-8.2l3.8-1c0.8,2.3,1.3,4.7,1.6,7.1c0.6-0.6,1.3-1.4,2.3-2.6c1-1.3,1.6-2.2,1.7-2.8h-4.3V118l-3.8,1.2l-0.3-1.9
			l-1.4,0.2v18.1h-5.7v-17.4l-4.9,0.3l-0.3-5h3.3l1-1.7l-4.9-5.9l2.4-6.2l0.9,1.2l2.8-6.2l5,1.6l-4.3,9.4l0.9,1l3.3-6.4l3.8,2.3
			v-4.2h9.5V95h6.6v3.5h9.7v5.1H2023z M1982.8,132.4c0.9-5.1,1.2-9.1,0.9-12.1l3.8,0.2c0.3,5.1,0.2,9.3-0.5,12.5L1982.8,132.4z
			 M1992.7,113.2l1.4-0.2l-0.5-1.2L1992.7,113.2z M1999.4,115.4V105h7.3v-1.4h-9l-3.5,6.6l3.3-1.2
			C1998.2,110.4,1998.9,112.5,1999.4,115.4z M2004.8,111.4h1.9v-1.7h-1.9V111.4z M2004.8,116.8h1.9v-1.6h-1.9V116.8z M2013.3,111.4
			h1.9v-1.7h-1.9V111.4z M2015.2,116.8v-1.6h-1.9v1.6H2015.2z"/>
		<path class="st5" d="M2052.2,102.2h-3.6v-5.7h18v14.4c0,2.9-1.4,4.3-4.3,4.3h-4.7l-0.7-2.1c-1.9,0.7-3.8,1.2-5.9,1.4l-0.7,1.6
			h12.7v19.4h-6.1v-1.7h-18.1v1.7h-6.1v-19.4h11.3l0.7-1.2c-0.3,0.2-1.2,0.3-2.4,0.3h-3l-0.7-2.1c-2,1.2-4.7,2.1-8.3,2.8l-2.1-5.4
			c2.3-0.2,4.5-0.8,6.6-1.7c-1.2-0.8-2.8-1.8-5-3.1l2.6-3.5h-4v-5.7h19.1v13.7c0,1.2-0.2,2-0.7,2.4l2.8,0.5l-1.2-3.6
			c0.7,0,1.7-0.1,3.1-0.3c1.4-0.2,2.3-0.5,2.6-0.7c-1.3-0.9-2.8-1.8-4.5-2.8L2052.2,102.2z M2040.6,109c0.5-0.1,0.7-0.4,0.7-0.9
			c0-0.2,0-0.8,0-1.6v-4.3h-7.1c2,1,3.5,2,4.5,2.8l-2.3,3.3l3-1.6L2040.6,109z M2038.8,122.7h18.1v-1.6h-18.1L2038.8,122.7
			L2038.8,122.7z M2038.8,128.8h17.9v-1.6h-17.9L2038.8,128.8L2038.8,128.8z M2060.5,107.5v-5.2h-5.9c1.4,0.8,2.7,1.7,4,2.8
			l-2.1,2.8l2.1-1l0.7,2.1h0.2C2060.4,109.1,2060.8,108.6,2060.5,107.5z"/>
		<path class="st5" d="M2099.4,135.2l-1.6-5.7h3.8c1,0.2,1.6-0.3,1.6-1.7v-5.6h-7.6v12.1h-6.4v-12.1h-7.6c-0.5,6-1.9,10.5-4.2,13.4
			l-5.2-5c2.2-3.1,3.3-7.4,3.3-12.8V97h34.2v33.8c0,2.9-1.3,4.3-3.8,4.3L2099.4,135.2L2099.4,135.2z M2081.9,107.1h7.3v-4.5h-7.3
			V107.1z M2081.9,116.6h7.3v-4h-7.3V116.6z M2095.6,107.1h7.6v-4.5h-7.6V107.1z M2095.6,116.6h7.6v-4h-7.6V116.6z"/>
		<path class="st5" d="M2141.1,133.8l-3.1-5.6c4.4-1.5,7.3-3.4,8.9-5.6c2.9-4.3,3.4-8.4,1.6-12.3c-1.7-3.8-4.9-5.7-9.4-5.6
			c0,12-2.5,20.2-7.6,24.6c-2.1,1.7-4.2,2.2-6.4,1.4c-2.3-0.9-4.1-2.6-5.2-5c-2.3-4.6-2.4-9.5-0.2-14.8c2.2-5,5.8-8.4,10.8-10.4
			c3.6-1.4,7.1-1.8,10.6-1.4c3.7,0.3,6.8,1.7,9.4,4.2c3,2.8,4.7,6.2,5,10.4c0.3,4.5-0.7,8.5-3.1,12
			C2149.6,129.4,2145.9,132.1,2141.1,133.8z M2133.1,105.5c-5.2,1.9-8.1,5.6-8.7,11.3c-0.2,1.6-0.1,3.2,0.5,4.9
			c0.7,2,1.6,2.7,2.8,2.1c1.5-0.7,2.8-2.6,3.8-5.7C2132.6,114.9,2133.1,110.7,2133.1,105.5z"/>
		<path class="st5" d="M2164.2,108.8h34.2v6.4h-12.8c-0.1,4.4-1.3,8.2-3.6,11.5c-2.4,3.5-5.8,6.1-10.2,7.8l-4.3-5.2
			c3.7-1.4,6.4-3.1,8.2-5c2.1-2.4,3.2-5.5,3.3-9.2h-14.6v-6.3H2164.2z M2168.7,98.6h25.2v6.1h-25.2V98.6z M2194.2,102.1l2.6-2.1
			l3.5,4.2l-2.6,2.3L2194.2,102.1z M2196.3,97.7l2.6-2.1l3.5,4.2l-2.8,2.1L2196.3,97.7z"/>
		<path class="st5" d="M2207.9,117.2V111h12.3v-6h-8.5v-6.1h27.8v6.1h-12.3v5.9h16v6.2h-16v7.1c0,1.2,0.5,1.7,1.4,1.7h11.8l-0.3,6.1
			h-12.3c-5,0-7.5-2.1-7.5-6.4v-8.5L2207.9,117.2L2207.9,117.2z"/>
		<path class="st5" d="M2252,111.3v-5.9h7.5v-8h6.4v8h8.5V97h6.4v8.3h7.3v5.9h-7.3c0,5.6-1,10.1-3.1,13.7c-2.2,3.7-5.7,6.7-10.4,9
			l-4.7-4.9c4.3-2.1,7.3-4.5,9-7.1c1.8-2.7,2.8-6.2,2.8-10.8h-8.5v9.5h-6.4v-9.5h-7.5V111.3z"/>
		<path class="st5" d="M2297.3,115.6c12.3-4.9,21.6-11.1,28.1-18.7l5.6,4.5c-3.5,3.8-7.3,7.1-11.6,9.9v22.4h-6.8v-18.2
			c-3.6,2.3-7.5,4.4-11.6,6.2L2297.3,115.6z"/>
		<path class="st5" d="M2350,96.3h6.6v14.8l3.1-3.8c3.8,2.2,8.7,5.6,14.6,10.1l-4.2,5.2c-6.5-5.1-11-8.3-13.5-9.7V134h-6.6
			L2350,96.3L2350,96.3z"/>
		<path class="st5" d="M2384.4,101.2c13.8-0.7,25.6-2,35.4-4l1,6.1c-2.9,0.5-4.7,0.8-5.6,1c-1.6,0.5-3.4,1.3-5.2,2.6
			c-2.5,1.7-4.7,4.1-6.4,7.1c-2.1,3.6-2.4,6.6-1,9c1,1.7,2.8,3,5.2,3.6c1,0.3,3.2,0.8,6.4,1.2l-1.9,6.1c-3.2-0.6-5.8-1.2-7.6-1.9
			c-2.8-0.9-5-2.3-6.6-4.2c-3.1-3.4-3.8-7.3-2.1-12c1.5-3.9,4.2-7.4,8-10.4c-3.7,0.6-10,1.2-18.7,1.9L2384.4,101.2z M2411.7,109.9
			l3.5-1.6l2.4,4.7l-3.5,1.7L2411.7,109.9z M2416.3,107.8l3.6-1.6l2.3,4.7l-3.3,1.6L2416.3,107.8z"/>
		<path class="st5" d="M2429.5,101.7c5.3-0.1,10.8-0.2,16.3-0.3l-0.2-5.2h6.8l-0.2,5.2h13.7v5.7l-13.9-0.2l0.2,4
			c2.2,2.7,2.9,6.1,2.1,10.4c-0.5,2.4-1.5,4.8-3.1,7.1c-1.9,2.5-4.1,4.6-6.8,6.2l-4.3-4.5c3.4-2,5.4-3.8,6.2-5.6
			c-1.6,0.9-3.3,1.1-5,0.5c-2.3-0.8-3.8-2.7-4.3-5.7c-0.5-2.7-0.2-5.1,0.9-7.3c1.6-3.1,4.4-4.3,8.3-3.6l-0.2-1.4
			c-5.8,0.2-11.3,0.5-16.5,0.7V101.7z M2444.6,114c-1.5,0.2-2.2,1.3-2.1,3.1c0.1,1.9,0.8,2.8,2.1,3c0.9,0.1,1.6-0.2,2.1-0.9
			c0.3-0.6,0.5-1.3,0.5-2.3c0-0.9-0.2-1.7-0.7-2.3C2446.1,114.2,2445.4,113.9,2444.6,114z"/>
		<path class="st5" d="M2478.8,135.4c-1.6,0-3.1-0.6-4.3-1.9c-1.3-1.3-1.9-2.7-1.9-4.3c0-1.6,0.6-3.1,1.9-4.3
			c1.3-1.3,2.7-1.9,4.3-1.9s3.1,0.6,4.3,1.9c1.3,1.3,1.9,2.7,1.9,4.3s-0.6,3.1-1.9,4.3C2481.9,134.8,2480.4,135.4,2478.8,135.4z
			 M2480.7,130.9c0.5-0.5,0.7-1,0.7-1.7s-0.2-1.3-0.7-1.7c-0.6-0.6-1.2-0.9-1.9-0.9s-1.3,0.3-1.9,0.9c-0.5,0.5-0.7,1-0.7,1.7
			s0.2,1.3,0.7,1.7c0.6,0.6,1.2,0.9,1.9,0.9S2480.2,131.5,2480.7,130.9z"/>
		<path class="st5" d="M2556.6,130.4l-3,5.9c-3.4-0.7-6.4-1.8-9.2-3.3c-2.9-1.6-5.4-3.6-7.5-6.1c-1.3,1.7-3.4,3.6-6.4,5.6
			c-2.4,1.6-5.8,2.8-10.1,3.6l-3.5-6.1c2.5-0.3,5-0.9,7.5-1.7c2.4-0.8,4.1-1.9,5-3.3h-12.8v-5.6h16.8l0.2-1.6h-10.4v-4.7h10.4v-1.6
			h-10.2v-1.9h-6.1V98.1h16.3V95h6.2v3.1h16v11.6h-5.9v1.9h-10.1v1.6h10.2v4.7h-10.2l0.2,1.6h16.8v5.6h-13.4c1.2,1.2,3,2.3,5.6,3.3
			C2551.5,129.3,2554,130,2556.6,130.4z M2523.4,106.6h10.2v-3h-10.2V106.6z M2539.9,106.6h9.9v-3h-9.9V106.6z"/>
		<path class="st5" d="M2572,105.4h-10.6v-5.7h13.4c0.7-2.1,1-3.6,1-4.5l6.8,0.7c-0.3,2-0.7,3.2-1,3.8h19.6v5.7H2579
			c-1.2,3.6-2.7,6.5-4.7,8.7v21.3h-6.1v-15.3c-0.8,1.4-2.4,2.8-4.7,4.2l-3-7.1c2.1-1,4.4-2.8,6.9-5.2
			C2569.7,109.9,2571.2,107.7,2572,105.4z M2591.5,113.5h7.8v5.6h-7.8v8.9h9.4v5.6h-25.3V128h9.7v-8.9h-7.6v-5.6h7.6v-6.8h6.2
			L2591.5,113.5L2591.5,113.5z"/>
		<path class="st5" d="M2613,96.2l6.6,0.5c-0.3,3.6-0.6,7.2-0.7,10.8c-0.1,3.7-0.2,7.3-0.3,10.9c0,1,0,2.2,0,3.5
			c0,1.6,0.2,2.8,0.7,3.6c0.6,1.3,1.9,1.9,4,1.9c1.7,0,3.4-0.4,4.9-1.2c3.9-2,7.2-5.8,9.7-11.5l5,4.3c-2.8,5.1-6.4,9-10.9,11.8
			c-5,3.1-9.8,3.9-14.6,2.4c-2-0.6-3.3-1.7-4-3.3c-0.7-1.5-1-3.6-1-6.4C2612.4,114.6,2612.6,105.4,2613,96.2z"/>
		<path class="st5" d="M2653.8,108v-5.7c4.5-0.3,9.1-0.6,13.9-0.9l-0.2-5.2l6.8,0.5l-0.2,4.5c3.9,0,7.8,0,11.6,0v5.6
			c-3.8,0-7.8,0.1-11.8,0.2v5.2c2.8-0.1,6.4-0.6,10.8-1.6v5.9c-2.4,0.5-6,0.9-10.6,1.4l0.2,3.3c4.7,0.9,9.1,2.6,13,5l-3.3,5
			c-3.2-2.1-6.4-3.6-9.4-4.5c0,3.6-1.7,5.9-5.2,6.9c-2.1,0.6-4.2,0.8-6.2,0.7c-3.1-0.2-5.4-1-6.9-2.4c-1.6-1.5-2.1-3.4-1.6-5.7
			c0.6-2.7,2.3-4.4,5.2-5.2c1.7-0.5,4.5-0.6,8.2-0.5l-0.2-2.3c-2.9,0.1-5.2,0.1-6.8,0c-2.5-0.1-4.2-0.9-5-2.3
			c-0.6-0.9-0.7-2-0.3-3.1c0.2-0.8,0.8-2.1,1.6-3.8l6.2,1c-0.6,0.8-0.9,1.3-1,1.6c-0.1,0.5,0.1,0.8,0.7,0.9c1.6,0.1,3.2,0.1,4.7,0
			l-0.2-5.6C2662.9,107.3,2658.3,107.6,2653.8,108z M2668,125.5c-2-0.5-3.8-0.4-5.4,0.2c-1.6,0.6-2,1.4-1.2,2.4c0.7,0.9,2,1.2,4,0.9
			C2667.5,128.6,2668.4,127.5,2668,125.5z"/>
		<path class="st5" d="M2695.3,115.6l-0.7-6.8l8.3-0.9v-9.5l6.2-0.2v9l9.5-0.9c-0.1-3.4-0.2-6.7-0.2-10.1h6.6c0,3.1,0.1,6.2,0.2,9.4
			l7.1-0.5l0.2,6.1l-7.5,0.3v6.4c0,2.3-1.1,3.9-3.3,4.7c-2.3,0.8-4.7,0.9-7.3,0.3l-0.9-5.7c1.2,0.1,2.1,0.2,3,0.2
			c1.3,0,1.9-0.6,1.9-1.7v-3.3l-9.4,1l0.2,10.6c0,1.2,0.2,1.9,0.7,2.3c0.5,0.3,1.4,0.5,3,0.5c4.7,0,10.2-0.3,16.5-0.9v6.6
			c-5.6,0.5-10.9,0.8-16.1,0.9c-3.6,0.1-6.2-0.4-7.8-1.6c-1.6-1.2-2.4-3-2.4-5.6l-0.2-12L2695.3,115.6z"/>
		<path class="st5" d="M2740.9,131.1c4.7-11.7,9.7-23.3,14.8-34.9l6.4,2.3c-2.8,5.7-5.1,10.9-6.9,15.6c2.2-1.6,4.3-2.1,6.4-1.4
			c2.2,0.8,3.3,2.4,3.3,4.7v7.6c0,1.4,0.5,2,1.4,1.7c1-0.3,2.5-1.6,4.3-3.6c1.4-1.5,2.3-2.8,2.8-4l4.5,4.9c-2.4,4.1-5.5,7-9.2,8.9
			c-2.4,1.3-4.7,1.6-6.8,1c-2.4-0.7-3.6-2.3-3.5-4.9l0.2-7.8c0-2.4-1.1-3-3.3-1.7c-2.3,1.3-4,3.2-5,5.9c-0.6,1.6-1.6,4.5-3,8.5
			L2740.9,131.1z"/>
	</g>
	<g class="st0">
		<path class="st5" d="M2789.8,135.4c-1.6,0-3.1-0.6-4.3-1.9c-1.3-1.3-1.9-2.7-1.9-4.3c0-1.6,0.6-3.1,1.9-4.3
			c1.3-1.3,2.7-1.9,4.3-1.9s3.1,0.6,4.3,1.9c1.3,1.3,1.9,2.7,1.9,4.3s-0.6,3.1-1.9,4.3C2792.9,134.8,2791.5,135.4,2789.8,135.4z
			 M2791.8,130.9c0.5-0.5,0.7-1,0.7-1.7s-0.2-1.3-0.7-1.7c-0.6-0.6-1.2-0.9-1.9-0.9s-1.3,0.3-1.9,0.9c-0.5,0.5-0.7,1-0.7,1.7
			s0.2,1.3,0.7,1.7c0.6,0.6,1.2,0.9,1.9,0.9S2791.2,131.5,2791.8,130.9z"/>
	</g>
</g>
<g>
	<path class="st6" d="M516.9,68.8c-0.1,1.4-0.2,2.8-0.2,4.4c0,4.7,2.2,7,6.7,7c2.5,0,4.6-0.9,6.2-2.6c1.4-1.5,2.1-3.5,2.1-5.8
		c0-4.4-2.1-8.7-6.4-13c-0.3-0.3-0.4-0.5-0.4-0.8c0-0.4,0.2-0.6,0.7-0.6c0.1,0,0.4,0.1,0.8,0.4c2.6,1.8,4.8,4.1,6.4,6.9
		c1.5,2.5,2.2,5,2.2,7.5c0,3.2-1.3,5.8-3.9,7.8c-2.1,1.5-4.6,2.3-7.4,2.3s-5-0.8-6.6-2.5s-2.4-4-2.4-7.1c0-1.5,0.1-3,0.2-4.3
		c-2.6-0.9-4.5-1.8-5.5-2.9c-1.1-1.1-1.7-2.6-1.7-4.5c0-2.4,1.5-4.9,4.6-7.4c-1.8-0.7-3.1-1.7-4.1-2.9c-0.9-1.1-1.4-2.1-1.4-2.9
		c0-0.4,0.1-0.6,0.4-0.6c0.2,0,0.5,0.2,0.9,0.7c0.7,1,1.8,1.9,3.3,2.7c1.2,0.6,2.4,1,3.6,1.1c1.4,0.1,2.3,0.6,2.6,1.4
		c0.5-2.8,1-5.1,1.2-6.8c0-0.2,0.1-0.6,0.1-1c0.1-0.8,0.2-1.3,0.2-1.5c0-1.1-0.2-1.8-0.5-2.3s-1-0.8-1.8-1c-0.6-0.1-0.9-0.3-0.9-0.5
		c0-0.3,0.2-0.5,0.7-0.7c0.4-0.2,0.9-0.3,1.3-0.3c1.2,0,2.5,0.6,3.8,1.8c1.1,1,1.7,1.9,1.7,2.8c0,0.6-0.2,1-0.7,1.3
		c-0.4,0.3-0.7,0.9-1,2c-1.6,6.4-2.9,12.7-3.9,19c1,0.1,1.9,0.2,2.8,0.2c0.4,0,0.8,0,1.1-0.1c1.7-0.1,2.5,0.4,2.5,1.3
		c0,0.8-0.4,1.3-1.2,1.4c-0.5,0.1-1.3,0.2-2.4,0.2C519.3,69.1,518.1,69,516.9,68.8z M515.4,65.7c0.7-4.4,1.3-8.2,1.9-11.4
		c-0.3,0.3-0.8,0.5-1.7,0.5c-1.1,0.1-2.1,0.4-3,1.1c-2.3,1.6-3.4,3.3-3.4,5C509.2,63.3,511.2,64.9,515.4,65.7z"/>
	<path class="st6" d="M579.5,56.4c3.2,0,5.9,0.9,7.9,2.8c2,1.9,3,4.1,3,6.8c0,3.9-2.2,7.1-6.6,9.6c-3.5,2-7.8,3.1-12.8,3.5
		c-0.3,0-0.8,0.1-1.4,0.1s-1-0.2-1-0.7c0-0.4,0.3-0.6,0.8-0.7c5-0.7,9.1-2,12.3-3.9c3.6-2.3,5.4-5,5.4-8.1c0-2.3-0.6-4-1.9-5.3
		c-1.4-1.4-3.3-2.2-5.6-2.2c-2.5,0-5,0.6-7.6,1.9c-1.7,0.9-4,2.3-7,4.4c-0.8,0.6-1.3,1.1-1.7,1.5c-0.4,0.5-0.9,0.8-1.5,0.8
		c-0.9,0-2-0.7-3.1-2.1c-0.8-1.1-1.2-2-1.2-2.7s0.2-1,0.5-1c0.2,0,0.4,0.2,0.7,0.7c0.6,0.9,1.2,1.4,1.8,1.5c0.1,0,0.2,0,0.3,0
		c0.5,0,1.1-0.2,1.9-0.5c5.1-2.5,7.9-3.9,8.3-4.1C574.1,57.1,577,56.4,579.5,56.4z"/>
	<path class="st6" d="M623.9,60c-1.3-0.7-2.1-2.2-2.3-4.6c-0.2-2.6-0.4-6.3-0.6-11c-0.1-1-0.3-1.7-0.7-2c-0.7-0.6-1.5-0.9-2.4-0.9
		c-0.2,0-0.3-0.1-0.3-0.4c0-0.3,0.3-0.6,0.8-0.9c0.5-0.2,0.9-0.3,1.4-0.3c1.3,0,2.6,0.6,4.1,1.8c0.7,0.6,1.1,1.2,1.1,1.7
		c0,0.3-0.2,0.7-0.6,1.2c-0.2,0.4-0.4,0.8-0.4,1.2c0,1.3-0.1,2.5-0.1,3.7c0,2.3,0.1,4.6,0.3,7c0.1,1.3,0.6,2,1.3,2.1
		c0.1,0,0.1,0,0.2,0c0.3,0,0.8-0.1,1.3-0.3c2.4-1.1,4.6-2.3,6.7-3.5c0.7-0.4,1.1-0.8,1.1-1.1c0-0.5-0.5-1.1-1.6-1.9
		c-0.3-0.2-0.4-0.4-0.4-0.6c0-0.3,0.3-0.5,1-0.5c1.3,0,2.6,0.7,4.1,2.1c0.9,1,1.4,1.8,1.4,2.4c0,0.6-0.6,1.1-1.7,1.5
		c-5.3,1.9-8.9,3.4-10.9,4.3c-4,2-6.7,3.6-8.2,4.9c-1.9,1.7-2.8,3.5-2.8,5.5c0,3.7,3.3,5.6,9.9,5.6c4.3,0,7.6-0.4,10-1.1
		c0.7-0.2,1.3-0.3,1.8-0.3c0.9,0,1.7,0.2,2.4,0.7c0.6,0.4,1,0.9,1,1.5s-0.2,1-0.7,1.2c-0.4,0.2-1.2,0.4-2.2,0.5
		c-2.4,0.4-5.5,0.5-9.4,0.5c-4.9,0-8.5-0.6-10.8-1.8c-2.7-1.3-4-3.5-4-6.5C613.5,67.5,617,63.5,623.9,60z"/>
	<path class="st6" d="M677.6,58.3V48.1h-12.3c-1.4,0-2.7,0.1-3.9,0.3l-0.5-2c1.6,0.2,3.1,0.4,4.4,0.4h12.3v-2.1c0-4-0.1-6.6-0.3-8.1
		c2.5,0.3,4,0.5,4.7,0.7c0.5,0.2,0.7,0.4,0.7,0.7c0,0.4-0.6,0.9-1.9,1.5v7.3h11.4c1.4-1.8,2.3-2.6,2.7-2.6c0.3,0,1.3,0.7,2.9,2
		c0.9,0.7,1.3,1.2,1.3,1.5s-0.2,0.5-0.7,0.5h-17.5v10.2H696c1.5-1.8,2.4-2.8,2.7-2.8s1.3,0.7,3,2.1c0.9,0.8,1.4,1.3,1.4,1.5
		c0,0.3-0.2,0.5-0.7,0.5h-20.8c2.3,4,5.6,7.6,9.9,10.9c3.6,2.9,7.9,5,12.8,6.4c0.1,0,0.2,0.1,0.2,0.2c0,0.2-0.1,0.3-0.2,0.3
		c-0.7,0.2-1.2,0.4-1.5,0.7c-0.3,0.3-0.6,0.8-1,1.5c-0.2,0.5-0.4,0.7-0.6,0.7c-0.3,0-1-0.2-1.9-0.7c-3.4-1.7-6.7-4.3-10.1-7.6
		c-3.4-3.4-6.2-7.3-8.3-11.5c0.2,12.1,0.4,19.6,0.4,22.4c0,1-0.7,1.6-2.2,1.6c-1,0-1.5-0.5-1.5-1.4c0-1.7,0.2-8.5,0.5-20.5
		c-5,7.6-12.2,13.5-21.9,17.9c0,0,0,0-0.1,0c-0.3,0-0.4-0.2-0.4-0.5c0-0.1,0-0.2,0.1-0.2c8.6-5.2,15.4-11.9,20.3-20.3h-14.4
		c-1.1,0-2.4,0.1-3.9,0.3l-0.5-1.9c1.4,0.2,2.9,0.3,4.5,0.3H677.6z"/>
	<path class="st6" d="M730.5,61.1V46.5h-14.2c-1.1,0-2.3,0.1-3.7,0.3l-0.5-2c1.3,0.2,2.7,0.4,4.2,0.4h14.3v-1.8
		c0-3.4-0.1-5.8-0.3-7.1c2.4,0.3,3.9,0.5,4.5,0.7c0.5,0.2,0.8,0.4,0.8,0.7c0,0.4-0.6,0.9-1.8,1.5v6h12.6c1.7-1.9,2.6-2.8,2.9-2.8
		c0.3,0,1.3,0.7,3,2.2c0.9,0.7,1.3,1.2,1.3,1.5s-0.2,0.5-0.7,0.5h-19v14.5h3.2c1.9-2.9,3.6-5.9,5.1-9c0.8-1.8,1.2-3,1.4-3.7
		c3,1.4,4.5,2.3,4.5,2.8c0,0.6-0.7,0.9-2.1,0.9c-2.5,3.7-5,6.8-7.5,9h10.8c1.6-1.9,2.5-2.9,2.7-2.9c0.3,0,1.3,0.7,3.1,2.1
		c0.8,0.7,1.3,1.2,1.3,1.5s-0.2,0.5-0.7,0.5h-21.4c2.7,4.1,6.1,7.6,10.2,10.4c3.5,2.4,7.7,4.3,12.6,5.6c0.1,0,0.2,0.1,0.2,0.2
		c0,0.2-0.1,0.3-0.3,0.3c-0.7,0.1-1.2,0.4-1.5,0.7c-0.3,0.3-0.6,0.8-0.9,1.6c-0.2,0.5-0.5,0.7-0.8,0.7s-1-0.3-2.1-0.9
		c-3.4-1.7-6.5-3.9-9.5-6.6c-3.5-3.2-6.3-6.9-8.4-11.2c0.2,12.4,0.3,19.1,0.3,20c0,1-0.7,1.6-2.2,1.6c-1,0-1.5-0.5-1.5-1.4
		c0-4.2,0.2-10.4,0.5-18.5c-2.7,4-6.2,7.6-10.4,10.8c-3.5,2.6-7.3,4.7-11.4,6.3c0,0,0,0-0.1,0c-0.3,0-0.4-0.2-0.4-0.5
		c0-0.1,0-0.2,0.1-0.2c9-5.2,15.7-11.5,20.1-19h-15c-1.3,0-2.7,0.1-4,0.3l-0.5-2c1.7,0.2,3.1,0.4,4.4,0.4h16.8L730.5,61.1
		L730.5,61.1z M717.6,49.5c0-0.1-0.1-0.1-0.1-0.2c0-0.2,0.1-0.3,0.3-0.3c0.1,0,0.1,0,0.2,0.1c2.2,1.1,3.8,2.4,5,3.9
		c0.9,1.2,1.3,2.4,1.3,3.6c0,0.7-0.2,1.2-0.6,1.7c-0.4,0.4-0.8,0.6-1.3,0.6c-0.9,0-1.5-0.6-1.6-1.8
		C720.5,54.3,719.4,51.7,717.6,49.5z"/>
	<path class="st6" d="M779,50.5c-2.4,0.3-4.1,0.4-5.1,0.4c-1.5,0-2.6-0.2-3.5-0.7c-0.8-0.4-1.5-1.2-2.2-2.2
		c-0.2-0.3-0.3-0.5-0.3-0.7c0-0.5,0.2-0.7,0.5-0.7s0.5,0.2,0.9,0.5c0.7,0.7,1.4,1.1,2.1,1.3c0.5,0.2,1.3,0.2,2.3,0.2
		c1.9,0,4.1-0.3,6.6-0.9c0.6-1.2,1.1-2.6,1.6-4c0.2-0.8,0.4-1.5,0.4-1.9c0-1-1.1-1.4-3.3-1.4c-0.4,0-0.6-0.1-0.6-0.3
		c0-0.3,0.2-0.5,0.6-0.8c0.5-0.3,1.2-0.5,1.9-0.5c0.9,0,1.9,0.3,3.1,0.9c1.5,0.7,2.3,1.5,2.3,2.4c0,0.5-0.2,0.9-0.6,1.2
		c-0.5,0.3-1,0.9-1.4,1.7c-0.2,0.4-0.6,1.2-1.2,2.3c1.9-0.6,3.5-1.2,4.8-2c1.1-0.6,2-1,2.7-1c0.5,0,1,0.1,1.3,0.4
		c0.3,0.3,0.4,0.6,0.4,0.9c0,0.4-0.1,0.7-0.4,1c-0.2,0.2-0.6,0.4-1.3,0.7c-3,1.2-6.1,2.1-9.1,2.8c-2.1,3.6-3.8,6.5-5.2,8.5l0.1,0.1
		c2.3-1.8,4.4-2.7,6.4-2.7c3,0,4.5,1.6,4.7,4.7c0.1,0.8,0.1,1.6,0.1,2.2c5.1-3,8.7-5.3,10.9-6.8c0.4-0.3,0.6-0.6,0.6-0.9
		c0-0.2-0.2-0.5-0.5-0.7c-0.5-0.3-1.1-0.5-1.9-0.6c-0.3-0.1-0.5-0.2-0.5-0.3c0-0.3,0.2-0.5,0.7-0.6c0.4-0.1,0.9-0.2,1.4-0.2
		c1.2,0,2.5,0.4,3.9,1.3c1.4,0.9,2.2,1.7,2.2,2.5c0,0.7-0.4,1-1.1,1.1c-0.6,0.1-1.1,0.2-1.6,0.4c-2.8,1.2-6,2.7-9.6,4.6
		c-0.6,0.3-1.4,0.8-2.4,1.4c-1.1,0.6-1.8,1-2.2,1.3l0.1,7.6c0,1.3-0.5,2-1.4,2c-0.4,0-0.8-0.1-1.1-0.4s-0.4-0.6-0.4-1
		c0-0.6,0-1.6,0.1-3c0.1-1.5,0.1-2.7,0.1-3.6c-2.4,1.3-4.1,2.5-5.1,3.4c-1.5,1.4-2.2,2.9-2.2,4.5c0,2.6,2,3.9,6.1,3.9
		c3,0,5.6-0.1,8-0.4c0.9-0.1,1.9-0.3,2.9-0.5c0.9-0.2,1.6-0.3,2-0.3c1,0,1.8,0.2,2.4,0.7c0.5,0.4,0.8,0.9,0.8,1.4
		c0,0.9-1,1.5-3.1,1.7c-2.6,0.2-5.9,0.3-10,0.3c-7.3,0-11-2.1-11-6.4c0-2.3,1-4.5,3.1-6.4c1.2-1.2,3.3-2.6,6.1-4.3
		c0-1.1,0-1.8,0-2.2c0-1.8-0.2-3.1-0.7-3.8c-0.4-0.5-1-0.8-1.8-0.8c-2,0-4.3,1.2-6.7,3.5c-1.6,1.5-3.1,3.4-4.7,5.7
		c-0.4,0.5-0.8,0.8-1.3,0.8c-0.4,0-0.7-0.2-1-0.5s-0.4-0.7-0.4-1.1c0-0.7,0.5-1.5,1.5-2.6c2.1-2.1,3.8-4.2,5.3-6.4
		C776.4,55.2,777.7,53.1,779,50.5z"/>
	<path class="st6" d="M821.8,42.6h-3.4c-0.8,0-2,0.1-3.3,0.3l-0.5-1.9c1.3,0.2,2.6,0.3,3.9,0.3h9c1.4-1.7,2.2-2.5,2.5-2.5
		c0.2,0,1.2,0.6,2.7,1.9c0.8,0.6,1.2,1.1,1.2,1.4s-0.2,0.5-0.7,0.5H825c-0.7,4.9-1.9,9.2-3.7,12.9l0.5,0.4h5.1c1-1,1.6-1.5,1.8-1.5
		s0.9,0.4,1.9,1.2c0.6,0.5,0.9,0.9,0.9,1.2s-0.4,0.8-1.2,1.3V64l0.2,14.1c0,0.9-0.6,1.3-1.9,1.3c-0.8,0-1.2-0.4-1.2-1.2v-2h-5.9v4.3
		c0,0.9-0.6,1.3-1.9,1.3c-0.8,0-1.3-0.3-1.3-0.9l0.3-15l0.1-5.6c-1.3,2-2.8,3.8-4.4,5.5c0,0-0.1,0.1-0.2,0.1c-0.3,0-0.5-0.1-0.5-0.4
		c0,0,0-0.1,0.1-0.1C818.1,58.8,820.8,51.2,821.8,42.6z M827.4,75V57.3h-5.9V75H827.4z M839.7,55h6.9c0.9-1.8,1.6-3.4,2.1-4.7
		c0.4-0.9,0.6-2,0.9-3.3c2.1,0.7,3.3,1.2,3.7,1.4s0.6,0.4,0.6,0.7c0,0.4-0.6,0.7-1.9,0.9c-1.3,2-2.6,3.6-3.9,4.9h7.2
		c1.3-1.5,2.1-2.3,2.3-2.3c0.3,0,1.1,0.6,2.6,1.8c0.7,0.6,1.1,1,1.1,1.4c0,0.3-0.2,0.5-0.7,0.5h-10.9v6.8h4.8
		c1.2-1.5,1.9-2.2,2.2-2.2s1.1,0.6,2.5,1.7c0.6,0.6,1,1,1,1.3s-0.2,0.5-0.7,0.5h-9.8v6.7h4.8c1.3-1.5,2-2.3,2.2-2.3
		c0.3,0,1.1,0.6,2.6,1.8c0.7,0.6,1,1,1,1.3s-0.2,0.5-0.7,0.5h-9.9v7.7h6c1.4-1.8,2.3-2.7,2.6-2.7s1.2,0.7,2.7,2.1
		c0.7,0.6,1.1,1.1,1.1,1.4s-0.2,0.5-0.7,0.5h-22.2v1.8c0,0.9-0.6,1.4-1.9,1.4c-0.9,0-1.4-0.4-1.4-1.1c0-0.2,0-1,0.1-2.4
		c0.1-4.3,0.2-9.8,0.3-16.6c0-1.2,0-3.1,0.1-5.5c-1.4,1.5-2.9,2.8-4.4,4l-0.1,0.1c-0.3,0-0.5-0.2-0.5-0.5c0,0,0-0.1,0.1-0.1
		c4.5-4.6,8.1-10.6,10.7-17.8h-5.1c-0.1,1.8-0.5,3.3-1.3,4.4c-0.7,1.1-1.5,1.6-2.5,1.6c-1.1,0-1.7-0.6-1.7-1.7
		c0-0.7,0.4-1.3,1.3-1.9c1.9-1.2,3.1-3.2,3.3-6c0-0.1,0.1-0.2,0.3-0.2s0.3,0.1,0.4,0.3c0.1,0.5,0.2,1.2,0.3,2.2h5.5l0.2-0.5
		c0.7-2.3,1.2-4.3,1.3-6.1c2.1,0.5,3.4,0.9,4,1.1c0.5,0.2,0.7,0.5,0.7,0.7c0,0.5-0.6,0.8-1.8,1.1c0,0.1-0.4,1.3-1.2,3.7h10.8
		c1.1-1.2,1.8-1.9,2.1-1.9c0.4,0,1.3,0.7,2.7,2.1c0.7,0.7,1.1,1.2,1.1,1.6c0,0.4-0.6,0.6-1.9,0.6c-0.7,0-1.3,0.3-1.9,0.9
		c-0.9,0.9-1.9,1.7-3,2.5c-0.1,0.1-0.1,0.1-0.2,0.1c-0.3,0-0.4-0.1-0.4-0.3v-0.1c0.7-1.5,1.3-2.9,1.7-4.2h-11.4
		C843.8,48.5,841.9,52,839.7,55z M839.2,63h7.5v-6.8h-7.5V63z M839.2,64.3V71h7.5v-6.7H839.2z M839.2,72.4v7.7h7.5v-7.7H839.2z"/>
	<path class="st6" d="M887.8,52.2c1.3-0.2,2.4-0.4,3.4-0.4c3.7,0,5.5,2.5,5.5,7.5c0,1.5-0.2,3.5-0.7,5.9c-0.4,2.1-0.9,3.9-1.4,5.3
		c-1.1,3.4-2.6,5.9-4.3,7.5c-1.4,1.4-2.9,2.1-4.4,2.1c-1,0-1.6-0.5-1.9-1.5c-0.1-0.5-0.4-1-0.8-1.5c-0.5-0.7-1.5-1.7-3-3.1
		c-0.1-0.1-0.2-0.3-0.2-0.5c0-0.3,0.2-0.5,0.5-0.5c0.1,0,0.3,0.1,0.5,0.3c1.8,1.3,3.3,2.2,4.4,2.8c0.3,0.2,0.8,0.3,1.4,0.3
		c0.7,0,1.4-0.3,2-0.9c1.4-1.5,2.7-4.2,3.8-7.9c1-3.4,1.5-6.5,1.5-9.3c0-3.2-1-4.7-3.1-4.7c-1.2,0-2.5,0.3-4.2,0.9
		c-4.2,9.1-8.5,17.3-12.7,24.4c-0.3,0.6-0.8,0.9-1.4,0.9c-1,0-1.5-0.4-1.5-1.3c0-0.5,0.2-0.9,0.5-1.4c5.3-8.3,9.5-15.6,12.4-21.7
		c-1.3,0.4-3.1,1.1-5.4,2c-0.8,0.3-1.5,0.6-2,1c-0.4,0.3-0.8,0.4-1.1,0.4c-0.8,0-1.5-0.3-2.2-1c-1.3-1.2-1.9-2.4-2-3.5
		c0-0.8,0.2-1.2,0.6-1.2c0.1,0,0.3,0.2,0.5,0.5c0.7,1.2,1.5,1.8,2.6,1.8c0.9,0,2.1-0.2,3.7-0.7c3.6-1,5.7-1.6,6.3-1.8
		c0.9-2.1,1.7-4.2,2.4-6.3c0.3-0.8,0.4-1.6,0.4-2.2c0-0.5-0.4-1-1.1-1.4c-0.7-0.4-1.4-0.6-2.2-0.6c-0.4-0.1-0.6-0.2-0.6-0.5
		c0-0.2,0.1-0.4,0.4-0.5c0.4-0.3,1.1-0.4,2-0.4c1.2,0,2.5,0.4,3.8,1.2s1.9,1.6,1.9,2.6c0,0.5-0.2,0.8-0.7,1.1
		c-0.4,0.2-0.9,0.8-1.3,1.8C888.8,50,888.1,51.6,887.8,52.2z M913.7,65.6c0,1.3-0.5,2-1.6,2c-0.5,0-1-0.1-1.4-0.4s-1-0.4-1.7-0.4
		c-2.1,0-4.1,0.1-6.1,0.2c-0.1,0-0.1,0-0.1,0c-0.4,0-0.6-0.2-0.6-0.6c0-0.3,0.2-0.5,0.6-0.6c2.9-0.6,5-1,6.2-1.4
		c0.5-0.1,0.7-0.4,0.7-0.8c0-1.4-0.8-3.1-2.5-5.1c-1.5-1.8-3.3-3.4-5.5-4.7c-0.2-0.2-0.3-0.4-0.3-0.6c0-0.4,0.2-0.6,0.5-0.6
		s0.5,0.1,0.7,0.2c3.2,1.3,6,3.4,8.2,6.3C912.7,61.4,913.7,63.6,913.7,65.6z"/>
	<path class="st6" d="M936.2,52c-2,0.4-4,0.5-5.9,0.5c-1.2,0-2.3-0.3-3.3-0.8c-0.9-0.5-1.6-1.1-2-1.9c-0.1-0.3-0.2-0.5-0.2-0.6
		c0-0.3,0.1-0.4,0.4-0.4c0.2,0,0.5,0.1,0.8,0.3c1.2,0.8,2.6,1.2,4.2,1.2c1.8,0.1,4.1-0.2,7.1-0.9c0.6-1.5,1.2-3.2,1.9-5.2
		c0.2-0.7,0.3-1.3,0.3-1.9c0-0.5-0.3-0.9-1-1.3c-0.7-0.4-1.4-0.7-2-0.8c-0.3-0.1-0.4-0.2-0.4-0.3c0-0.6,0.6-1,1.8-1
		c1,0,2.4,0.4,4.1,1.2c1.1,0.5,1.7,1.1,1.7,1.7c0,0.5-0.2,0.9-0.6,1.2c-0.4,0.2-0.8,1-1.4,2.2c0,0.1-0.3,0.6-0.7,1.7
		c-0.3,0.7-0.6,1.3-0.8,1.9c1.4-0.4,2.9-1,4.5-1.7c1.2-0.6,2.1-0.9,2.7-0.9c0.4,0,0.8,0.1,1.2,0.4c0.3,0.3,0.5,0.6,0.5,1
		c0,0.7-0.6,1.3-1.8,1.7c-2.6,0.9-5.4,1.6-8.3,2.2c-4,9.3-7.4,16.5-10,21.7c-0.3,0.7-0.9,1.1-1.8,1.1c-0.4,0-0.8-0.2-1.1-0.5
		c-0.2-0.3-0.4-0.6-0.4-1c0-0.5,0.1-0.9,0.4-1.3C929.9,65.5,933.2,59,936.2,52z M954.9,55.8c-1.2-0.4-2.8-0.6-4.6-0.6
		c-0.9,0-1.9,0.1-2.8,0.2c-0.1,0-0.1,0-0.1,0c-0.4,0-0.7-0.1-0.7-0.4c0-0.4,0.2-0.6,0.7-0.8c1.4-0.4,2.9-0.6,4.5-0.6
		c1.7,0,3.4,0.2,5.2,0.7c1.6,0.4,2.9,1,3.9,1.7c1.5,1,2.2,2,2.2,3c0,0.4-0.1,0.7-0.4,1c-0.3,0.2-0.6,0.4-0.9,0.4
		c-0.6,0-1.2-0.3-1.8-0.9c-1.4-1.4-2.8-2-4.3-2s-2.7,0.5-3.7,1.5c-0.9,0.9-1.3,2-1.3,3.3c0,1.4,0.2,3.2,0.6,5.3
		c0.1,0.6,0.3,1.6,0.6,2.8c0.2,1,0.4,1.7,0.4,2.2c4.8,1.5,8.1,3.1,9.8,4.6c0.6,0.5,0.9,1.1,0.9,1.9c0,1-0.5,1.5-1.6,1.5
		c-0.5-0.1-0.9-0.2-1.4-0.6c-2.8-2.2-5.3-3.7-7.5-4.6c-0.1,2.1-0.7,3.7-1.7,4.8c-1.3,1.3-3.4,2-6.3,2c-2.4,0-4.3-0.6-5.6-1.7
		c-1.1-0.9-1.7-2-1.7-3.3c0-1.8,0.9-3.2,2.6-4.3c1.4-0.9,3.1-1.3,5.1-1.3s3.5,0.1,4.6,0.4c-0.6-5.1-0.9-7.9-0.9-8.5
		c0-2.1,0.6-3.8,1.7-5c0.9-1,2.4-1.8,4.4-2.3c0.2-0.1,0.3-0.2,0.3-0.3C955.1,55.9,955,55.9,954.9,55.8z M949.9,74.4
		c-1.5-0.5-3.1-0.8-4.8-0.8c-1.9,0-3.4,0.3-4.6,1c-1,0.6-1.6,1.4-1.6,2.4c0,0.9,0.5,1.6,1.4,2.1s2.1,0.7,3.6,0.7
		c2,0,3.5-0.4,4.4-1.3C949.3,77.7,949.8,76.3,949.9,74.4z"/>
	<path class="st6" d="M992.4,68.8c-0.1,1.4-0.2,2.8-0.2,4.4c0,4.7,2.2,7,6.7,7c2.5,0,4.6-0.9,6.2-2.6c1.4-1.5,2.1-3.5,2.1-5.8
		c0-4.4-2.1-8.7-6.4-13c-0.3-0.3-0.4-0.5-0.4-0.8c0-0.4,0.2-0.6,0.7-0.6c0.1,0,0.4,0.1,0.8,0.4c2.6,1.8,4.8,4.1,6.4,6.9
		c1.5,2.5,2.2,5,2.2,7.5c0,3.2-1.3,5.8-3.9,7.8c-2.1,1.5-4.6,2.3-7.4,2.3c-2.8,0-5-0.8-6.6-2.5s-2.4-4-2.4-7.1c0-1.5,0.1-3,0.2-4.3
		c-2.6-0.9-4.5-1.8-5.5-2.9c-1.1-1.1-1.7-2.6-1.7-4.5c0-2.4,1.5-4.9,4.6-7.4c-1.8-0.7-3.1-1.7-4.1-2.9c-0.9-1.1-1.4-2.1-1.4-2.9
		c0-0.4,0.1-0.6,0.4-0.6c0.2,0,0.5,0.2,0.9,0.7c0.7,1,1.8,1.9,3.3,2.7c1.2,0.6,2.4,1,3.6,1.1c1.4,0.1,2.3,0.6,2.6,1.4
		c0.5-2.8,1-5.1,1.2-6.8c0-0.2,0.1-0.6,0.1-1c0.1-0.8,0.2-1.3,0.2-1.5c0-1.1-0.2-1.8-0.5-2.3s-1-0.8-1.8-1c-0.6-0.1-0.9-0.3-0.9-0.5
		c0-0.3,0.2-0.5,0.7-0.7c0.4-0.2,0.9-0.3,1.3-0.3c1.2,0,2.5,0.6,3.8,1.8c1.1,1,1.7,1.9,1.7,2.8c0,0.6-0.2,1-0.7,1.3
		c-0.4,0.3-0.7,0.9-1,2c-1.6,6.4-2.9,12.7-3.9,19c1,0.1,1.9,0.2,2.8,0.2c0.4,0,0.8,0,1.1-0.1c1.7-0.1,2.5,0.4,2.5,1.3
		c0,0.8-0.4,1.3-1.2,1.4c-0.5,0.1-1.3,0.2-2.4,0.2C994.8,69.1,993.6,69,992.4,68.8z M990.9,65.7c0.7-4.4,1.3-8.2,1.9-11.4
		c-0.3,0.3-0.8,0.5-1.7,0.5c-1.1,0.1-2.1,0.4-3,1.1c-2.3,1.6-3.4,3.3-3.4,5C984.7,63.3,986.7,64.9,990.9,65.7z"/>
	<path class="st6" d="M1049.1,47.2c0.7,1.1,1.1,2.4,1.1,3.9c0,1.3-0.3,3-1,5.2c-1.8,5.2-4.4,9.9-7.6,14c-1.9,2.4-3.7,3.5-5.2,3.5
		c-1.6,0-3-0.9-4.2-2.8c-1.2-2-1.9-4.3-1.9-7c0-5.1,1.9-9.5,5.8-13.1c4.1-3.8,9.2-5.7,15.3-5.7c5.7,0,10.2,1.8,13.6,5.3
		c3,3,4.4,6.8,4.4,11.2c0,5.5-2.7,9.9-8,13.1c-4,2.4-8.8,3.8-14.4,4.1c-0.1,0-0.1,0-0.1,0c-0.5,0-0.8-0.2-0.8-0.6s0.3-0.7,0.9-0.9
		c5.6-1,10.1-2.8,13.5-5.6c3.6-3,5.4-6.7,5.4-11.1c0-4.2-1.5-7.6-4.5-10.2c-2.5-2.1-5.7-3.3-9.5-3.5c-0.4,0-0.9-0.1-1.4-0.1
		C1050,47.1,1049.6,47.2,1049.1,47.2z M1047.5,47.4c-4.3,0.7-7.8,2.5-10.6,5.3c-2.9,2.9-4.3,6.4-4.3,10.4c0,1.9,0.4,3.7,1.3,5.3
		c0.7,1.2,1.5,1.8,2.5,1.8c0.9,0,2.2-1,3.7-3.1c3.2-4.2,5.6-8.9,7.3-13.9c0.5-1.4,0.7-2.7,0.7-3.8
		C1048.1,48.6,1047.9,47.8,1047.5,47.4z"/>
	<path class="st6" d="M1093.5,54.3c1.7-1.1,3.4-1.7,4.8-1.7c1.3,0,2.9,0.6,4.9,1.9c4.8,3.1,8.2,5.2,10.2,6.3c2.8,1.5,6.3,3.2,10.6,5
		c0.9,0.4,1.4,1,1.4,1.9c0,0.5-0.2,0.9-0.5,1.3c-0.4,0.3-0.8,0.5-1.3,0.5c-0.6,0-1.4-0.3-2.6-0.9c-3.7-1.8-6.8-3.5-9.3-5.2
		c-3.8-2.6-7.1-5-10-7.2c-1.2-1-2.3-1.6-3.4-1.6s-2.3,0.5-3.6,1.5c-1.8,1.4-3.6,3.1-5.4,5.1c-0.5,0.6-1.1,1.3-1.7,2.2
		c-0.4,0.7-0.9,1-1.6,1c-0.6,0-1.3-0.3-2.2-0.9c-0.8-0.5-1.4-1.1-2-1.8c-0.7-0.9-1.1-1.7-1.1-2.5c0-0.4,0.2-0.6,0.5-0.6
		c0.2,0,0.4,0.2,0.7,0.5c0.9,1,1.7,1.5,2.4,1.5c0.4,0,1.1-0.3,1.9-0.9c0.6-0.4,1.9-1.3,3.9-2.8C1091.6,55.6,1092.8,54.8,1093.5,54.3
		z"/>
</g>
<line class="st7" x1="1540.4" y1="179" x2="2965" y2="179"/>
<line class="st7" x1="1540.4" y1="73" x2="2965" y2="73"/>
<path id="path2451" class="st4" d="M566.5,272c-33.1-6.6-55.9-28.3-64.6-61.8c-2.4-9.3-2.2-28.1,0.6-38.8
	c7.5-29.1,29.6-51.2,58.5-58.6c10.8-2.8,32.6-3,43.3-0.5c23.6,5.6,43.7,21.5,53.9,42.9c6.1,12.7,8.5,23.4,8.5,37.2
	c0,23.9-11.4,48.4-29.3,62.7c-7.5,6-21.8,13.2-31.3,15.7C596.6,273.4,576.3,274,566.5,272z M600.2,228
	c23.5-10.9,29.6-44.1,11.8-63.8c-14.1-15.6-41.8-16-56.5-0.7c-2.3,2.4-5.6,7.4-7.4,11.1c-2.8,6-3.2,8.1-3.1,17.5
	c0,9.5,0.4,11.6,3.3,17.4c5.2,10.8,14.2,18.2,25.3,21C580.7,232.4,593.5,231.2,600.2,228z M907.3,272.1
	c-30.3-5.9-52.9-25.6-62.7-54.5c-11.9-35.4,3.2-76.9,34.8-95.6c13.2-7.8,23.4-10.6,40.9-11.1c19.3-0.6,28.4,1.2,42.9,8.3
	c8.6,4.3,12.4,7,19.9,14.5c15.5,15.4,22.9,32.1,24,54c1.9,38.6-21.9,72.1-58.6,82.5C937.7,273.3,918.2,274.2,907.3,272.1z
	 M940,228.5c7.8-3.4,15.7-11.5,19.4-19.7c4.3-9.5,4.5-22.9,0.5-33.1c-3.6-9.1-12-17.5-20.9-20.9c-6.8-2.6-18.3-3.3-25-1.7
	c-12.2,3-22.9,13.2-26.7,25.6c-7,23,4.3,45.3,26.1,51.5C920.5,232.3,933.5,231.4,940,228.5z M1363.6,272
	c-17.4-3.4-30.8-10.5-42.5-22.2c-9.8-9.8-14.8-17.8-19.6-30.9c-2.8-7.8-3.4-11.4-3.9-23c-0.7-17.2,1.3-27.1,8.2-40.9
	c14.6-29.1,40.4-44.4,74.6-44.4c26.6,0,45,7.7,61.8,25.7c14.1,15.1,21.5,34.5,21.5,56.1c0,24-11.4,48.3-29.3,62.7
	c-7.5,6-21.8,13.2-31.3,15.7C1393.7,273.4,1373.4,274,1363.6,272z M1397.3,228c34.2-16,26.9-70.5-10.1-75.3
	c-19.1-2.5-34.2,5.5-41.9,21.9c-2.8,5.9-3.2,8.1-3.2,17.5c0,9.6,0.4,11.5,3.3,17.4c5.3,10.9,14.2,18.2,25.3,21
	C1377.8,232.4,1390.6,231.2,1397.3,228z M754.8,270.2c-22.9-3.9-43.8-17.7-55-36.5c-13.7-22.9-14.6-54.9-2.2-79.5
	c9.8-19.5,27-32.9,50.2-39.2c7.8-2.1,12.8-2.5,39.8-2.9l30.9-0.5v21.1v21.1h-22.4c-25,0-32.8,0.9-41.5,4.9
	c-8.3,3.8-13.7,8.9-17.4,16.4c-2.8,5.7-3.2,7.7-3.2,17.2s0.4,11.4,3,16.4c4,7.6,10.2,13.4,18.5,17.2c6.8,3.2,6.8,3.2,34.8,3.6
	l28,0.4v20.9v20.9l-29.2-0.1C773.2,271.2,757.7,270.7,754.8,270.2z M1032.7,216.8c0.4-47.9,0.7-55.5,2.4-61.4
	c6.4-22,22.5-37.4,44.8-43.1c5.5-1.4,10.7-1.7,22-1.3c17.4,0.6,27.6,3.4,41.8,11.6l8.9,5.1l3.2-2.3c5.6-4,21.9-11.1,29.4-12.9
	c9.8-2.3,30.9-2.3,39.9,0.1c16.5,4.3,31,15.4,38.4,29.6c7.5,14.3,7.6,15.5,7.6,75.5v53.9H1249h-22.1v-49.5c0-30.6-0.4-51.2-1.2-53.8
	c-2.8-10.2-11.8-15.7-25.3-15.7c-9,0-15.2,1.9-19.8,6.1c-5.7,5.3-5.8,6.1-5.8,61.3v51.6h-22.6h-22.6v-51.2c0-47.3-0.2-51.6-2.1-55.8
	c-3.9-8.6-10.7-12-23.4-12c-13,0-22.1,5.3-25.2,14.7c-0.9,2.6-1.3,19.6-1.3,54.1v50.2H1055h-22.7L1032.7,216.8z M242.6,216.8
	c0.4-47.9,0.7-55.5,2.4-61.4c6.4-22,22.5-37.4,44.8-43.1c5.5-1.4,10.7-1.7,22-1.3c17.4,0.6,27.6,3.4,41.8,11.6l8.9,5.1l3.2-2.3
	c5.6-4,21.9-11.1,29.4-12.9c9.8-2.3,30.9-2.3,39.9,0.1c16.5,4.3,31,15.4,38.4,29.6c7.5,14.3,7.6,15.5,7.6,75.5v53.9h-22.1h-22.1
	v-49.5c0-30.6-0.4-51.2-1.2-53.8c-2.8-10.2-11.8-15.7-25.3-15.7c-9,0-15.2,1.9-19.8,6.1c-5.7,5.3-5.8,6.1-5.8,61.3v51.6h-22.6h-22.6
	v-51.2c0-47.3-0.2-51.6-2.1-55.8c-3.9-8.6-10.7-12-23.4-12c-13,0-22.1,5.3-25.2,14.7c-0.9,2.6-1.3,19.6-1.3,54.1v50.2h-22.7h-22.7
	L242.6,216.8z M401.5,69.1V43.6h5.9h5.9l11.3,16.1l11.3,16.1l0.3-16.1l0.3-16.1h5.6h5.6v25.5v25.5h-6h-6l-11.3-16l-11.3-16
	l-0.6,15.7L412.3,94l-5.4,0.3l-5.4,0.3V69.1z M304.8,75.1L304.5,55l-7.6-0.3l-7.6-0.3v-5v-5h21.5h21.5v5v5l-7.6,0.3L317,55
	l-0.3,20.1l-0.3,20.1h-5.6h-5.6L304.8,75.1z M356.9,75.1L356.6,55l-7.6-0.3l-7.6-0.3v-5v-5h21.5h21.5v5v5l-7.6,0.3L369,55l-0.3,20.1
	l-0.3,20.1h-5.6h-5.6L356.9,75.1z"/>
<circle class="st4" cx="149.2" cy="76.7" r="10.8"/>
<circle class="st4" cx="193.9" cy="63" r="16.4"/>
<circle class="st4" cx="248.5" cy="76" r="20.7"/>
</svg>
